<svg id="Layer_1" data-name="Layer 1" xmlns="http://www.w3.org/2000/svg" xmlns:xlink="http://www.w3.org/1999/xlink" viewBox="0 0 816.51 191.78"><defs><style>.cls-1,.cls-36,.cls-37,.cls-38,.cls-39,.cls-40,.cls-41,.cls-42,.cls-43{opacity:0.7;}.cls-2{fill:url(#linear-gradient);}.cls-3{fill:url(#linear-gradient-2);}.cls-4{fill:url(#linear-gradient-3);}.cls-5{fill:url(#linear-gradient-4);}.cls-6{fill:url(#linear-gradient-5);}.cls-7{fill:url(#linear-gradient-6);}.cls-8{fill:url(#linear-gradient-7);}.cls-9{fill:url(#linear-gradient-8);}.cls-10{fill:url(#linear-gradient-9);}.cls-11{fill:url(#linear-gradient-10);}.cls-12{fill:url(#linear-gradient-11);}.cls-13{fill:url(#linear-gradient-12);}.cls-14{fill:url(#linear-gradient-13);}.cls-15{fill:url(#linear-gradient-14);}.cls-16{fill:url(#linear-gradient-15);}.cls-17{fill:url(#linear-gradient-16);}.cls-18{fill:url(#linear-gradient-17);}.cls-19{fill:url(#linear-gradient-18);}.cls-20{fill:url(#linear-gradient-19);}.cls-21{fill:url(#linear-gradient-20);}.cls-22{fill:url(#linear-gradient-21);}.cls-23{fill:url(#linear-gradient-22);}.cls-24{fill:url(#linear-gradient-23);}.cls-25{fill:url(#linear-gradient-24);}.cls-26{fill:url(#linear-gradient-25);}.cls-27{fill:url(#linear-gradient-26);}.cls-28{fill:url(#linear-gradient-27);}.cls-29{fill:url(#linear-gradient-28);}.cls-30{fill:url(#linear-gradient-29);}.cls-31{fill:url(#linear-gradient-30);}.cls-32,.cls-33,.cls-34,.cls-35{opacity:0.57;}.cls-32{fill:url(#linear-gradient-31);}.cls-33{fill:url(#linear-gradient-32);}.cls-34{fill:url(#linear-gradient-33);}.cls-35{fill:url(#linear-gradient-34);}.cls-36{fill:url(#linear-gradient-35);}.cls-37{fill:url(#linear-gradient-36);}.cls-38{fill:url(#linear-gradient-37);}.cls-39{fill:url(#linear-gradient-38);}.cls-40{fill:url(#linear-gradient-39);}.cls-41{fill:url(#linear-gradient-40);}.cls-42{fill:url(#linear-gradient-41);}.cls-43{fill:url(#linear-gradient-42);}</style><linearGradient id="linear-gradient" x1="147.64" y1="604.97" x2="147.64" y2="639.63" gradientUnits="userSpaceOnUse"><stop offset="0" stop-color="#ffe436"/><stop offset="1" stop-color="#ff7c36"/></linearGradient><linearGradient id="linear-gradient-2" x1="179.16" y1="604.97" x2="179.16" y2="639.63" xlink:href="#linear-gradient"/><linearGradient id="linear-gradient-3" x1="209.11" y1="604.97" x2="209.11" y2="639.63" xlink:href="#linear-gradient"/><linearGradient id="linear-gradient-4" x1="235.02" y1="604.97" x2="235.02" y2="639.63" xlink:href="#linear-gradient"/><linearGradient id="linear-gradient-5" x1="265.46" y1="604.97" x2="265.46" y2="639.63" xlink:href="#linear-gradient"/><linearGradient id="linear-gradient-6" x1="294.88" y1="604.97" x2="294.88" y2="639.63" xlink:href="#linear-gradient"/><linearGradient id="linear-gradient-7" x1="321.99" y1="604.97" x2="321.99" y2="639.63" xlink:href="#linear-gradient"/><linearGradient id="linear-gradient-8" x1="364.6" y1="604.97" x2="364.6" y2="639.63" xlink:href="#linear-gradient"/><linearGradient id="linear-gradient-9" x1="393.82" y1="604.97" x2="393.82" y2="639.63" xlink:href="#linear-gradient"/><linearGradient id="linear-gradient-10" x1="415.81" y1="604.97" x2="415.81" y2="639.63" xlink:href="#linear-gradient"/><linearGradient id="linear-gradient-11" x1="438.49" y1="604.97" x2="438.49" y2="639.63" xlink:href="#linear-gradient"/><linearGradient id="linear-gradient-12" x1="464" y1="604.97" x2="464" y2="639.63" xlink:href="#linear-gradient"/><linearGradient id="linear-gradient-13" x1="481.53" y1="604.97" x2="481.53" y2="639.63" xlink:href="#linear-gradient"/><linearGradient id="linear-gradient-14" x1="503.5" y1="604.97" x2="503.5" y2="639.63" xlink:href="#linear-gradient"/><linearGradient id="linear-gradient-15" x1="534.03" y1="604.97" x2="534.03" y2="639.63" xlink:href="#linear-gradient"/><linearGradient id="linear-gradient-16" x1="561.46" y1="604.97" x2="561.46" y2="639.63" xlink:href="#linear-gradient"/><linearGradient id="linear-gradient-17" x1="604.99" y1="604.97" x2="604.99" y2="639.63" xlink:href="#linear-gradient"/><linearGradient id="linear-gradient-18" x1="630.95" y1="604.97" x2="630.95" y2="639.63" xlink:href="#linear-gradient"/><linearGradient id="linear-gradient-19" x1="646.84" y1="604.97" x2="646.84" y2="639.63" xlink:href="#linear-gradient"/><linearGradient id="linear-gradient-20" x1="667.37" y1="604.97" x2="667.37" y2="639.63" xlink:href="#linear-gradient"/><linearGradient id="linear-gradient-21" x1="693.28" y1="604.97" x2="693.28" y2="639.63" xlink:href="#linear-gradient"/><linearGradient id="linear-gradient-22" x1="717.84" y1="604.97" x2="717.84" y2="639.63" xlink:href="#linear-gradient"/><linearGradient id="linear-gradient-23" x1="741.67" y1="604.97" x2="741.67" y2="639.63" xlink:href="#linear-gradient"/><linearGradient id="linear-gradient-24" x1="785.44" y1="604.97" x2="785.44" y2="639.63" xlink:href="#linear-gradient"/><linearGradient id="linear-gradient-25" x1="804.67" y1="604.97" x2="804.67" y2="639.63" xlink:href="#linear-gradient"/><linearGradient id="linear-gradient-26" x1="835.41" y1="604.97" x2="835.41" y2="639.63" xlink:href="#linear-gradient"/><linearGradient id="linear-gradient-27" x1="866.02" y1="604.97" x2="866.02" y2="639.63" xlink:href="#linear-gradient"/><linearGradient id="linear-gradient-28" x1="883.08" y1="604.97" x2="883.08" y2="639.63" xlink:href="#linear-gradient"/><linearGradient id="linear-gradient-29" x1="906.9" y1="604.97" x2="906.9" y2="639.63" xlink:href="#linear-gradient"/><linearGradient id="linear-gradient-30" x1="935.94" y1="604.97" x2="935.94" y2="639.63" xlink:href="#linear-gradient"/><linearGradient id="linear-gradient-31" x1="48.7" y1="79.22" x2="48.7" y2="0" xlink:href="#linear-gradient"/><linearGradient id="linear-gradient-32" x1="66.96" y1="109.24" x2="66.96" y2="47.95" xlink:href="#linear-gradient"/><linearGradient id="linear-gradient-33" x1="66.96" y1="139.04" x2="66.96" y2="77.75" xlink:href="#linear-gradient"/><linearGradient id="linear-gradient-34" x1="6051.39" y1="582.96" x2="6051.39" y2="505.14" gradientTransform="matrix(-1, 0, 0, 1, 6065.03, -443.91)" xlink:href="#linear-gradient"/><linearGradient id="linear-gradient-35" x1="591.44" y1="458.53" x2="591.44" y2="587.67" xlink:href="#linear-gradient"/><linearGradient id="linear-gradient-36" x1="699.8" y1="26.19" x2="699.8" y2="52.15" xlink:href="#linear-gradient"/><linearGradient id="linear-gradient-37" x1="759.78" y1="14.61" x2="759.78" y2="143.76" xlink:href="#linear-gradient"/><linearGradient id="linear-gradient-38" x1="446.69" y1="458.53" x2="446.69" y2="587.67" xlink:href="#linear-gradient"/><linearGradient id="linear-gradient-39" x1="309.24" y1="458.53" x2="309.24" y2="587.67" xlink:href="#linear-gradient"/><linearGradient id="linear-gradient-40" x1="626.33" y1="26.19" x2="626.33" y2="52.15" xlink:href="#linear-gradient"/><linearGradient id="linear-gradient-41" x1="614.84" y1="58.24" x2="614.84" y2="140.36" xlink:href="#linear-gradient"/><linearGradient id="linear-gradient-42" x1="552.41" y1="21.21" x2="552.41" y2="142.49" xlink:href="#linear-gradient"/></defs><title>Untitled-13</title><g class="cls-1"><path class="cls-2" d="M150.34,605.48h-5.46l-13.39,29.78h5.71l2.93-6.88H155l3,6.88h5.79ZM142,624l5.59-13,5.61,13Z" transform="translate(-131.49 -443.91)"/><path class="cls-3" d="M185.9,603.7v11.66a9.24,9.24,0,0,0-7.31-3.07c-6.61,0-11.5,4.55-11.5,11.61s4.89,11.65,11.5,11.65a9.37,9.37,0,0,0,7.53-3.22v2.93h5.1V603.7ZM179.22,631c-3.84,0-6.77-2.78-6.77-7.12s2.93-7.1,6.77-7.1,6.76,2.76,6.76,7.1S183.05,631,179.22,631Z" transform="translate(-131.49 -443.91)"/><path class="cls-4" d="M216.48,612.54l-7.27,16.85-7.06-16.85h-5.53l9.75,22.72h5.48l9.75-22.72Z" transform="translate(-131.49 -443.91)"/><path class="cls-5" d="M235,612.29a15.92,15.92,0,0,0-9.62,2.81l2.09,3.87a11.27,11.27,0,0,1,6.88-2.27c3.79,0,5.67,1.84,5.67,4.95V622h-5.88c-6.89,0-9.45,3-9.45,6.77,0,4,3.29,6.8,8.47,6.8,3.4,0,5.88-1.09,7.16-3v2.76h5V621.94C245.34,615.39,241.55,612.29,235,612.29Zm5,15.87a5.81,5.81,0,0,1-5.75,3.52c-2.71,0-4.34-1.23-4.34-3.15,0-1.64,1-3,4.6-3H240Z" transform="translate(-131.49 -443.91)"/><path class="cls-6" d="M267.16,612.29a10,10,0,0,0-7.84,3.18v-2.93h-5v22.72h5.31V623.78c0-4.55,2.55-6.86,6.34-6.86,3.4,0,5.39,2,5.39,6v12.34h5.32v-13C276.64,615.39,272.6,612.29,267.16,612.29Z" transform="translate(-131.49 -443.91)"/><path class="cls-7" d="M296.14,631c-3.93,0-6.91-2.68-6.91-7.12s3-7.1,6.91-7.1a6.44,6.44,0,0,1,5.65,3.15l4.08-2.38c-1.74-3.45-5.28-5.28-9.69-5.28-7.2,0-12.3,4.81-12.3,11.61s5.1,11.65,12.3,11.65c4.41,0,7.95-1.89,9.69-5.32l-4.08-2.36A6.44,6.44,0,0,1,296.14,631Z" transform="translate(-131.49 -443.91)"/><path class="cls-8" d="M333.62,624c0-7.12-4.85-11.75-11.5-11.75s-11.75,4.85-11.75,11.61,4.95,11.65,12.55,11.65c3.93,0,7.12-1.27,9.15-3.69l-2.85-3.27a8.2,8.2,0,0,1-6.16,2.47c-3.95,0-6.73-2.14-7.37-5.46h17.83C333.56,625.09,333.62,624.47,333.62,624Zm-18-2a6.28,6.28,0,0,1,6.47-5.53,6.2,6.2,0,0,1,6.43,5.53Z" transform="translate(-131.49 -443.91)"/><path class="cls-9" d="M358.84,613.69c0-2.24,1.86-4,6.45-4A16.47,16.47,0,0,1,373.5,612l1.76-4.3a18.88,18.88,0,0,0-9.91-2.64c-8.17,0-12,4.09-12,8.9,0,11.06,17.69,6.84,17.69,13.27,0,2.21-2,3.88-6.59,3.88a16.47,16.47,0,0,1-9.83-3.29l-1.92,4.3c2.48,2.13,7.12,3.58,11.75,3.58,8.17,0,12-4.09,12-8.86C376.49,615.9,358.84,620,358.84,613.69Z" transform="translate(-131.49 -443.91)"/><path class="cls-10" d="M393.8,612.29c-7,0-12.08,4.81-12.08,11.61s5.1,11.65,12.08,11.65,12.12-4.85,12.12-11.65S400.88,612.29,393.8,612.29Zm0,18.73c-3.83,0-6.73-2.78-6.73-7.12s2.9-7.1,6.73-7.1,6.76,2.76,6.76,7.1S397.67,631,393.8,631Z" transform="translate(-131.49 -443.91)"/><path class="cls-11" d="M413.15,603.7v31.56h5.32V603.7Z" transform="translate(-131.49 -443.91)"/><path class="cls-12" d="M444.26,612.54V624c0,4.55-2.5,6.84-6.22,6.84-3.36,0-5.31-2-5.31-6.08V612.54h-5.32v13c0,6.85,4,10,9.79,10a9.25,9.25,0,0,0,7.32-3.18v2.89h5.06V612.54Z" transform="translate(-131.49 -443.91)"/><path class="cls-13" d="M470.85,630.23a4.74,4.74,0,0,1-3,.94c-2,0-3.15-1.19-3.15-3.4V617h6.1v-4.24h-6.1v-5.2H459.4v5.2h-3.74V617h3.74v10.95c0,5,2.85,7.64,7.84,7.64a8.4,8.4,0,0,0,5.1-1.52Z" transform="translate(-131.49 -443.91)"/><path class="cls-14" d="M478.85,612.54v22.72h5.32V612.54Zm2.68-10.13a3.21,3.21,0,1,0,0,6.4,3.27,3.27,0,0,0,3.4-3.33A3.18,3.18,0,0,0,481.53,602.41Z" transform="translate(-131.49 -443.91)"/><path class="cls-15" d="M503.48,612.29c-7,0-12.08,4.81-12.08,11.61s5.11,11.65,12.08,11.65,12.13-4.85,12.13-11.65S510.54,612.29,503.48,612.29Zm0,18.73c-3.83,0-6.72-2.78-6.72-7.12s2.89-7.1,6.72-7.1,6.77,2.76,6.77,7.1S507.36,631,503.48,631Z" transform="translate(-131.49 -443.91)"/><path class="cls-16" d="M535.73,612.29a10,10,0,0,0-7.84,3.18v-2.93h-5v22.72h5.32V623.78c0-4.55,2.54-6.86,6.33-6.86,3.41,0,5.4,2,5.4,6v12.34h5.32v-13C545.21,615.39,541.16,612.29,535.73,612.29Z" transform="translate(-131.49 -443.91)"/><path class="cls-17" d="M557.37,619.13c0-1.49,1.55-2.54,4.77-2.54a12.5,12.5,0,0,1,6.51,1.7l2-4a18.1,18.1,0,0,0-8.51-2c-6.12,0-10,2.81-10,7.11,0,9.06,14,5,14,9.31,0,1.58-1.41,2.5-4.77,2.5a15.08,15.08,0,0,1-7.9-2.25l-2.06,4c2.06,1.45,5.83,2.54,9.62,2.54,6.38,0,10.29-2.75,10.29-7C571.41,619.66,557.37,623.74,557.37,619.13Z" transform="translate(-131.49 -443.91)"/><path class="cls-18" d="M604.76,605.48H592.52v29.78H598v-8.58h6.72c7.84,0,12.69-4,12.69-10.6S612.6,605.48,604.76,605.48Zm-.25,16.5H598V610.15h6.47c4.85,0,7.37,2.18,7.37,5.93S609.36,622,604.51,622Z" transform="translate(-131.49 -443.91)"/><path class="cls-19" d="M629.44,615.86v-3.32h-5.06v22.72h5.31v-11c0-4.65,2.56-7,6.61-7a7.26,7.26,0,0,1,1.23.12v-5.06C633.74,612.29,631,613.48,629.44,615.86Z" transform="translate(-131.49 -443.91)"/><path class="cls-20" d="M644.16,612.54v22.72h5.32V612.54Zm2.68-10.13a3.21,3.21,0,1,0,3.4,3.07A3.17,3.17,0,0,0,646.84,602.41Z" transform="translate(-131.49 -443.91)"/><path class="cls-21" d="M674.74,612.54l-7.27,16.85-7.06-16.85h-5.53l9.75,22.72h5.48l9.75-22.72Z" transform="translate(-131.49 -443.91)"/><path class="cls-22" d="M693.26,612.29a15.92,15.92,0,0,0-9.62,2.81l2.09,3.87a11.27,11.27,0,0,1,6.88-2.27c3.79,0,5.67,1.84,5.67,4.95V622h-5.86c-6.91,0-9.47,3-9.47,6.77,0,4,3.29,6.8,8.47,6.8,3.42,0,5.88-1.09,7.15-3v2.76h5V621.94C703.6,615.39,699.81,612.29,693.26,612.29Zm5,15.87a5.81,5.81,0,0,1-5.75,3.52c-2.71,0-4.34-1.23-4.34-3.15,0-1.64,1-3,4.6-3h5.49Z" transform="translate(-131.49 -443.91)"/><path class="cls-23" d="M724.7,630.23a4.73,4.73,0,0,1-3,.94c-2.05,0-3.14-1.19-3.14-3.4V617h6.08v-4.24h-6.08v-5.2h-5.32v5.2H709.5V617h3.76v10.95c0,5,2.83,7.64,7.82,7.64a8.38,8.38,0,0,0,5.1-1.52Z" transform="translate(-131.49 -443.91)"/><path class="cls-24" d="M753.28,624c0-7.12-4.85-11.75-11.48-11.75s-11.75,4.85-11.75,11.61,4.93,11.65,12.56,11.65c3.91,0,7.09-1.27,9.15-3.69l-2.86-3.27a8.22,8.22,0,0,1-6.16,2.47c-4,0-6.72-2.14-7.37-5.46H753.2C753.24,625.09,753.28,624.47,753.28,624Zm-17.95-2a6.27,6.27,0,0,1,6.47-5.53,6.17,6.17,0,0,1,6.42,5.53Z" transform="translate(-131.49 -443.91)"/><path class="cls-25" d="M780.42,630.59V605.48h-5.53v29.78H796v-4.67Z" transform="translate(-131.49 -443.91)"/><path class="cls-26" d="M802,612.54v22.72h5.33V612.54Zm2.69-10.13a3.21,3.21,0,1,0,3.41,3.07A3.18,3.18,0,0,0,804.68,602.41Z" transform="translate(-131.49 -443.91)"/><path class="cls-27" d="M845.1,612.29a10.56,10.56,0,0,0-8.51,3.79c-1.58-2.56-4.34-3.79-7.66-3.79a9.44,9.44,0,0,0-7.45,3.14v-2.89h-5.07v22.72h5.32V623.74c0-4.51,2.39-6.82,5.91-6.82,3.24,0,5.12,2,5.12,6v12.34h5.32V623.74c0-4.51,2.42-6.82,5.9-6.82,3.25,0,5.11,2,5.11,6v12.34h5.31v-13C854.4,615.39,850.57,612.29,845.1,612.29Z" transform="translate(-131.49 -443.91)"/><path class="cls-28" d="M863.34,612.54v22.72h5.32V612.54ZM866,602.41a3.21,3.21,0,1,0,0,6.4,3.27,3.27,0,0,0,3.4-3.33A3.18,3.18,0,0,0,866,602.41Z" transform="translate(-131.49 -443.91)"/><path class="cls-29" d="M889.93,630.23a4.71,4.71,0,0,1-3,.94c-2.05,0-3.15-1.19-3.15-3.4V617h6.08v-4.24h-6.08v-5.2h-5.32v5.2h-3.75V617h3.75v10.95c0,5,2.84,7.64,7.82,7.64a8.41,8.41,0,0,0,5.11-1.52Z" transform="translate(-131.49 -443.91)"/><path class="cls-30" d="M918.52,624c0-7.12-4.85-11.75-11.48-11.75s-11.75,4.85-11.75,11.61,4.93,11.65,12.55,11.65c3.91,0,7.1-1.27,9.15-3.69l-2.85-3.27a8.23,8.23,0,0,1-6.16,2.47c-4,0-6.73-2.14-7.37-5.46h17.83C918.48,625.09,918.52,624.47,918.52,624Zm-17.95-2a6.27,6.27,0,0,1,6.47-5.53,6.18,6.18,0,0,1,6.41,5.53Z" transform="translate(-131.49 -443.91)"/><path class="cls-31" d="M942.68,603.7v11.66a9.24,9.24,0,0,0-7.31-3.07c-6.61,0-11.5,4.55-11.5,11.61s4.89,11.65,11.5,11.65a9.4,9.4,0,0,0,7.53-3.22v2.93H948V603.7ZM936,631c-3.83,0-6.76-2.78-6.76-7.12s2.93-7.1,6.76-7.1,6.77,2.76,6.77,7.1S939.83,631,936,631Z" transform="translate(-131.49 -443.91)"/></g><polygon class="cls-32" points="97.18 48.16 97.18 79.22 0.22 31.06 0.22 0 97.18 48.16"/><polyline class="cls-33" points="96.97 79.01 36.94 109.24 36.94 77.75 96.97 47.95"/><polyline class="cls-34" points="36.94 108.82 96.97 139.04 96.97 107.56 36.94 77.75"/><polygon class="cls-35" points="27.29 74.46 0 61.22 0 126.03 27.29 139.04 27.29 74.46"/><path class="cls-36" d="M533.17,578.34l5.89-18.63h79.45a11,11,0,0,0,8.42-3.78,12.85,12.85,0,0,0,.09-17.12,10.4,10.4,0,0,0-8.09-3.79H561c-9,0-16.09-3-21.61-9.17a32.26,32.26,0,0,1-6.9-12h31.16a4.84,4.84,0,0,0,.68,0h55.27c9.4,0,16.66,3,22.2,9.22a32.2,32.2,0,0,1,8.67,22.49,33.63,33.63,0,0,1-8.66,23.12c-5.79,6.49-13,9.65-22.21,9.65Zm-.09-86.76a31.69,31.69,0,0,1,6.24-9.84c5.28-5.86,12.35-8.7,21.64-8.7h81.49l-5.89,18.54Z" transform="translate(-131.49 -443.91)"/><polygon class="cls-37" points="722.99 50.27 694 50.27 676.61 29.1 706.52 29.1 722.99 50.27"/><polygon class="cls-38" points="811.46 29.1 755.09 97.74 755.09 134.43 732.99 134.43 732.99 97.74 708.11 67.46 736.38 67.46 744.04 77.3 781.65 29.1 811.46 29.1"/><path class="cls-39" d="M382.48,578.34V517.71h22.18v40.94h64.59c5.7-.09,10.36-1.88,13.89-5.31,3.69-3.5,5.57-8.18,5.57-13.9V511.39c0-5.89-1.86-10.6-5.53-14a18.75,18.75,0,0,0-12.78-5.31,9.82,9.82,0,0,0-1.15-.05H404.66v0h-21.1L390.18,473h86.09c10.69,0,19.19,3.39,25.25,10.08a33.88,33.88,0,0,1,9.37,23.83v37.52A34.12,34.12,0,0,1,501.53,568c-6.27,6.93-14.53,10.3-25.26,10.3Z" transform="translate(-131.49 -443.91)"/><path class="cls-40" d="M255.09,578.34V516.65H357l-5.24,17.23H277.18V559h86.21l-5.87,19.35Zm1.06-86L262.79,473h100.6l-5.87,19.31Z" transform="translate(-131.49 -443.91)"/><polygon class="cls-41" points="628.91 50.27 602.77 50.27 623.43 29.1 649.89 29.1 628.91 50.27"/><polygon class="cls-42" points="654.9 134.43 628.16 134.43 574.77 78.95 586 67.46 611.86 67.46 601.09 78.32 654.9 134.43"/><rect class="cls-43" x="541.36" y="29.11" width="22.1" height="105.32"/></svg>